<svg width="30" height="30" viewBox="0 0 30 30" fill="none" xmlns="http://www.w3.org/2000/svg">
<path d="M2 13.5556C2 8.10856 2 5.38433 3.69289 3.69289C5.38433 2 8.10856 2 13.5556 2H16.4444C21.8914 2 24.6157 2 26.3071 3.69289C28 5.38433 28 8.10856 28 13.5556V16.4444C28 21.8914 28 24.6157 26.3071 26.3071C24.6157 28 21.8914 28 16.4444 28H13.5556C8.10856 28 5.38433 28 3.69289 26.3071C2 24.6157 2 21.8914 2 16.4444V13.5556Z" fill="#0980D4" fill-opacity="0.2"/>
<path d="M15.0001 17.8889C18.191 17.8889 20.7778 15.3021 20.7778 12.1111C20.7778 8.92011 18.191 6.33331 15.0001 6.33331C11.8091 6.33331 9.22229 8.92011 9.22229 12.1111C9.22229 15.3021 11.8091 17.8889 15.0001 17.8889Z" fill="#0980D4"/>
<path fill-rule="evenodd" clip-rule="evenodd" d="M25.0332 26.921C25.0448 26.9951 25.0311 27.071 24.9945 27.1365C24.9578 27.202 24.9002 27.2532 24.831 27.2821C23.0962 28 20.5409 28 16.4445 28H13.5556C9.46062 28 6.90395 28 5.16917 27.2806C5.10017 27.2518 5.04278 27.2008 5.00614 27.1356C4.9695 27.0705 4.9557 26.9949 4.96695 26.921C5.58662 22.644 9.84195 19.3333 15.0001 19.3333C20.1582 19.3333 24.4135 22.644 25.0332 26.921Z" fill="#0980D4"/>
</svg>
