<?xml version="1.0" standalone="no"?>
<!DOCTYPE svg PUBLIC "-//W3C//DTD SVG 20010904//EN"
 "http://www.w3.org/TR/2001/REC-SVG-20010904/DTD/svg10.dtd">
<svg version="1.0" xmlns="http://www.w3.org/2000/svg"
 width="626.000000pt" height="626.000000pt" viewBox="0 0 626.000000 626.000000"
 preserveAspectRatio="xMidYMid meet">

<g transform="translate(0.000000,626.000000) scale(0.100000,-0.100000)"
fill="#000000" stroke="none">
<path d="M3542 4758 c-5 -7 -11 -22 -14 -33 -3 -17 -13 -21 -66 -25 -34 -3
-62 -8 -62 -12 0 -5 0 -28 0 -53 0 -33 4 -45 15 -45 31 0 35 -39 35 -307 l-1
-268 -32 -20 c-21 -13 -34 -31 -37 -50 -6 -34 3 -32 -240 -60 -158 -19 -594
-30 -695 -18 l-70 8 0 40 c0 34 4 40 25 45 30 7 38 45 21 102 -9 29 -19 39
-47 48 -45 15 -109 7 -135 -16 -16 -14 -19 -29 -17 -73 3 -49 6 -56 26 -59 18
-3 22 -10 22 -38 0 -31 -3 -35 -20 -30 -11 3 -30 9 -42 12 -13 3 -100 30 -195
61 l-171 56 -4 104 c-3 90 -6 107 -22 119 -25 18 -37 18 -61 0 -16 -12 -20
-29 -23 -95 -2 -45 -7 -81 -11 -81 -3 0 -53 18 -110 41 -64 24 -108 36 -113
31 -6 -6 -8 -171 -6 -408 l5 -399 36 -205 c20 -113 40 -225 46 -250 19 -81 20
-80 -62 -80 -77 0 -97 -9 -97 -45 0 -36 20 -45 102 -45 63 0 79 3 87 18 7 13
19 16 58 14 l48 -4 -4 -44 c-2 -26 2 -51 10 -60 7 -9 11 -38 10 -76 -2 -49 -7
-68 -27 -91 -34 -40 -33 -104 1 -145 20 -24 25 -41 25 -86 0 -56 0 -56 -31
-56 -46 0 -69 -16 -69 -50 0 -33 23 -50 65 -50 22 0 26 -4 23 -22 l-3 -23
-292 -3 -293 -2 0 -46 c0 -39 5 -51 34 -80 l34 -34 161 0 161 0 0 -65 0 -65
-407 -2 c-400 -3 -408 -3 -408 -23 0 -20 7 -20 2445 -20 2438 0 2445 0 2445
20 0 20 -8 20 -458 23 l-458 2 3 63 3 62 153 3 c124 2 159 6 179 19 30 20 53
69 53 113 l0 30 -247 2 -248 3 -19 40 c-27 58 -84 227 -107 320 -11 44 -23
133 -26 197 l-6 117 64 3 64 3 3 124 c2 82 -1 128 -9 137 -7 9 -32 14 -65 14
l-54 0 2 228 3 227 65 0 65 0 5 -145 c5 -155 13 -184 56 -200 34 -13 160 -13
184 0 37 20 45 51 50 200 l5 145 70 5 70 5 5 115 c7 157 7 158 -77 162 l-68 3
-5 135 c-3 78 -10 144 -17 156 -19 34 -64 47 -148 42 -114 -5 -119 -12 -125
-191 l-5 -142 -65 0 -65 0 -6 210 c-3 116 -6 212 -7 214 -4 7 -69 -9 -207 -53
l-140 -44 -6 111 c-4 62 -7 166 -8 232 -1 66 -5 125 -9 131 -13 20 -47 25 -68
10 -18 -13 -19 -30 -22 -264 l-3 -251 -89 -21 c-83 -19 -92 -19 -120 -5 l-30
16 2 281 3 282 25 6 c23 5 25 11 25 55 l0 50 -69 5 c-57 4 -70 8 -72 23 -1 10
-5 25 -8 33 -7 17 -60 19 -74 2z m48 -38 c0 -5 -4 -10 -10 -10 -5 0 -10 5 -10
10 0 6 5 10 10 10 6 0 10 -4 10 -10z m140 -75 l0 -25 -150 0 -150 0 0 25 0 25
150 0 150 0 0 -25z m-56 -117 c5 -44 3 -440 -3 -500 -1 -16 -13 -18 -96 -18
l-95 0 0 285 0 285 94 0 95 0 5 -52z m344 -250 c-2 -149 -7 -232 -13 -231 -6
2 -11 90 -13 233 -2 201 0 230 13 230 13 0 15 -29 13 -232z m-2218 -223 c0
-131 -2 -155 -15 -155 -13 0 -15 24 -15 155 0 131 2 155 15 155 13 0 15 -24
15 -155z m2560 -682 c0 -401 5 -768 10 -818 13 -119 51 -272 100 -402 22 -59
40 -110 40 -115 0 -9 -736 -11 -856 -2 l-82 7 34 74 c47 103 99 263 121 369
14 73 17 135 16 342 l-1 252 -28 57 c-36 74 -109 147 -182 181 l-57 27 -565 0
-565 0 -67 -33 c-121 -60 -188 -152 -295 -412 -19 -47 -40 -91 -45 -97 -6 -7
-30 -13 -54 -13 l-44 0 0 220 c0 136 4 220 10 220 5 0 16 13 25 30 12 24 15
77 15 304 l0 275 -29 33 c-22 26 -27 40 -24 65 l5 31 101 -35 c155 -52 350
-100 469 -113 135 -16 558 -8 747 14 391 46 714 114 1046 219 77 25 143 45
148 46 4 0 7 -326 7 -726z m-2720 673 l85 -33 3 -55 c2 -46 -1 -62 -23 -93
-25 -38 -25 -39 -27 -264 -1 -124 0 -246 1 -271 3 -44 27 -100 43 -100 5 0 7
-98 6 -217 l-3 -217 -22 1 c-13 0 -31 1 -42 2 -13 1 -20 11 -24 39 -3 20 -15
89 -27 152 -60 327 -70 431 -70 770 0 176 3 320 8 320 4 -1 45 -16 92 -34z
m698 -130 c-2 -15 -7 -28 -13 -29 -12 -2 -19 38 -10 60 9 25 27 1 23 -31z
m-503 -71 c19 -18 25 -35 25 -70 l0 -45 -75 0 -75 0 0 35 c0 91 70 136 125 80z
m23 -177 c-2 -18 -6 -32 -10 -30 -5 1 -37 2 -73 2 l-65 0 0 30 0 30 76 0 75 0
-3 -32z m2699 -23 c1 -27 -1 -74 -4 -102 l-5 -53 -64 0 -64 0 0 99 0 100 38 4
c20 2 51 4 67 3 29 -1 30 -3 32 -51z m407 47 c3 -5 3 -53 -1 -106 l-6 -96 -54
0 -53 0 0 98 c0 54 2 101 5 104 9 9 103 9 109 0z m-3104 -117 l0 -35 -75 0
-75 0 0 35 0 35 75 0 75 0 0 -35z m-2 -92 l3 -33 -75 0 -76 0 0 28 c0 16 3 32
7 36 4 4 37 6 73 4 l65 -3 3 -32z m2 -128 c0 -57 -3 -69 -25 -90 -29 -30 -64
-32 -96 -6 -19 16 -24 30 -27 90 l-4 71 76 0 76 0 0 -65z m1657 -87 c68 -36
120 -89 149 -152 23 -49 24 -60 24 -287 0 -169 -4 -262 -15 -325 -19 -108 -70
-264 -126 -385 l-42 -89 -828 0 -829 0 0 25 c0 22 4 25 34 25 53 0 82 40 57
79 -5 7 -29 16 -55 18 l-46 6 0 58 c0 39 4 59 12 59 6 0 22 10 35 22 l23 22
16 -22 c20 -29 67 -29 95 -1 17 17 20 29 16 62 -3 23 -14 47 -23 54 -27 20
-72 16 -86 -7 -15 -24 -28 -26 -28 -4 0 9 -16 32 -35 51 -29 29 -35 42 -35 79
0 25 9 61 21 84 17 33 19 45 11 70 l-11 30 58 0 c35 0 62 5 68 13 5 6 25 50
43 97 50 127 135 294 172 336 18 20 49 47 70 60 81 52 102 53 673 51 l530 -2
52 -27z m-1717 -278 c0 -189 -2 -220 -15 -220 -13 0 -15 31 -15 220 0 189 2
220 15 220 13 0 15 -31 15 -220z m2718 -72 c-3 -32 -5 -33 -50 -36 l-48 -3 0
35 0 36 51 0 50 0 -3 -32z m-2948 -168 c0 -5 -22 -10 -49 -10 -28 0 -53 5 -56
10 -4 6 15 10 49 10 31 0 56 -4 56 -10z m258 -59 c4 -28 -14 -51 -42 -51 -47
0 -63 57 -24 84 19 13 25 14 43 2 11 -7 21 -23 23 -35z m-30 -142 c-2 -24 -7
-44 -13 -44 -12 0 -19 69 -10 93 11 29 26 -4 23 -49z m39 -111 c45 -42 15
-111 -47 -111 -22 0 -39 7 -52 22 -55 69 34 150 99 89z m161 -66 c3 -29 1 -32
-22 -32 -22 0 -26 5 -26 28 0 33 8 44 30 40 9 -2 16 -16 18 -36z m-198 -142
c0 -38 -4 -50 -15 -50 -11 0 -15 12 -15 50 0 38 4 50 15 50 11 0 15 -12 15
-50z m10 -176 c0 -22 -4 -25 -27 -22 -20 2 -29 9 -31 26 -3 19 1 22 27 22 27
0 31 -4 31 -26z m3210 -84 c0 -5 -9 -19 -20 -30 -20 -20 -33 -20 -1902 -20
-1737 0 -1883 1 -1900 17 -50 45 -134 43 1902 43 1273 0 1920 -3 1920 -10z"/>
<path d="M3929 3845 c-9 -8 -255 -54 -404 -74 -280 -39 -369 -44 -892 -50
l-523 -6 -27 -28 c-22 -22 -28 -37 -28 -73 0 -39 5 -50 33 -75 l32 -29 373 0
c589 -1 904 -20 1157 -71 52 -10 98 -19 102 -19 5 0 25 -16 47 -35 126 -114
312 -104 408 23 112 147 58 356 -111 426 -35 14 -156 23 -167 11z m166 -49
c88 -41 137 -118 137 -217 0 -138 -105 -242 -242 -241 -137 0 -240 105 -240
243 0 176 183 291 345 215z m-335 -62 c-51 -81 -60 -176 -24 -268 4 -11 3 -17
-2 -14 -5 3 -67 16 -138 27 -269 45 -380 52 -931 58 -567 5 -569 6 -577 55 -6
36 11 74 38 87 17 7 144 11 412 11 536 0 864 21 1147 75 111 21 109 22 75 -31z"/>
<path d="M3925 3737 c-71 -32 -115 -116 -101 -191 16 -83 83 -136 172 -136
124 0 202 131 147 247 -33 71 -146 112 -218 80z m136 -43 c99 -50 82 -208 -27
-244 -133 -44 -235 120 -138 221 46 48 101 55 165 23z"/>
<path d="M4005 2460 c-130 -28 -161 -193 -52 -274 39 -29 125 -29 163 0 44 32
66 68 71 115 10 98 -84 180 -182 159z m105 -57 c53 -49 57 -125 7 -171 -78
-73 -197 -21 -197 85 0 38 5 50 34 79 29 29 41 34 80 34 36 0 52 -6 76 -27z"/>
</g>
</svg>
